<svg width="21" height="17" viewBox="0 0 21 17" fill="none" xmlns="http://www.w3.org/2000/svg">
<path d="M10.125 17L9.1 16.1419C7.3372 14.6402 5.87983 13.3449 4.7279 12.2557C3.57597 11.1667 2.65833 10.193 1.975 9.33493C1.29167 8.47681 0.8125 7.69986 0.5375 7.00409C0.2625 6.30832 0.125 5.60482 0.125 4.89359C0.125 3.49965 0.629167 2.33557 1.6375 1.40135C2.64583 0.467117 3.89167 0 5.375 0C6.325 0 7.20417 0.208731 8.0125 0.626194C8.82083 1.04366 9.525 1.64666 10.125 2.4352C10.825 1.60027 11.5667 0.985675 12.35 0.591405C13.1333 0.197135 13.975 0 14.875 0C16.3583 0 17.6042 0.467117 18.6125 1.40135C19.6208 2.33557 20.125 3.49965 20.125 4.89359C20.125 5.60482 19.9875 6.30832 19.7125 7.00409C19.4375 7.69986 18.9583 8.47681 18.275 9.33493C17.5917 10.193 16.674 11.1667 15.5221 12.2557C14.3702 13.3449 12.9128 14.6402 11.15 16.1419L10.125 17ZM10.125 15.1678C11.8123 13.73 13.2008 12.4969 14.2905 11.4687C15.3801 10.4404 16.2458 9.53979 16.8875 8.76671C17.5292 7.99363 17.9792 7.30455 18.2375 6.69946C18.4958 6.09436 18.625 5.49352 18.625 4.89695C18.625 3.87424 18.275 3.03433 17.575 2.37722C16.875 1.7201 15.9769 1.39154 14.8806 1.39154C14.0219 1.39154 13.2271 1.63506 12.4962 2.1221C11.7654 2.60914 11.175 3.29332 10.725 4.17462H9.5C9.06667 3.30878 8.48458 2.62847 7.75375 2.1337C7.0229 1.63893 6.22811 1.39154 5.36937 1.39154C4.27312 1.39154 3.375 1.7201 2.675 2.37722C1.975 3.03433 1.625 3.87557 1.625 4.90092C1.625 5.49903 1.75417 6.10346 2.0125 6.71419C2.27083 7.32492 2.72083 8.02069 3.3625 8.8015C4.00417 9.58231 4.875 10.4829 5.975 11.5034C7.075 12.5239 8.45833 13.7453 10.125 15.1678Z" fill="white"/>
</svg>
